<svg id="_86385494-26be-4c3c-b508-57452eff5c21" data-name="86385494-26be-4c3c-b508-57452eff5c21" xmlns="http://www.w3.org/2000/svg" xmlns:xlink="http://www.w3.org/1999/xlink" viewBox="0 0 1024.09 784.98"><defs><style>.cls-1,.cls-18{fill:#fe0000;}.cls-1,.cls-14,.cls-15,.cls-4{opacity:0.1;}.cls-1,.cls-12,.cls-14,.cls-25,.cls-31,.cls-4{isolation:isolate;}.cls-16,.cls-2,.cls-20,.cls-21,.cls-29{fill:none;}.cls-2{stroke:#535461;}.cls-16,.cls-2,.cls-21,.cls-29{stroke-miterlimit:10;}.cls-16,.cls-2{stroke-width:2px;}.cls-3,.cls-4{fill:#03a4ed;}.cls-5{fill:url(#Degradado_sin_nombre);}.cls-6{fill:#6f7d95;}.cls-7{fill:#4b5c7a;}.cls-8{fill:#ff4d52;}.cls-9{fill:url(#Degradado_sin_nombre_2);}.cls-10{fill:#472727;}.cls-11{fill:#dde0e4;}.cls-12{opacity:0.05;}.cls-13{fill:#db8b8b;}.cls-16{stroke:#6f7d95;}.cls-17{fill:#7597ce;}.cls-19{fill:#ffec9f;}.cls-21{stroke:#ff4d52;}.cls-22{fill:url(#Degradado_sin_nombre_3);}.cls-23{fill:#53526b;}.cls-24{fill:#5f5d7e;}.cls-25{opacity:0.02;}.cls-26{fill:#d39999;}.cls-27{fill:#fdc2cc;}.cls-28{fill:#865a61;}.cls-29{stroke:#03a4ed;}.cls-30{fill:#a8a8a8;}.cls-31{opacity:0.2;}.cls-32{fill:#ffd037;}</style><linearGradient id="Degradado_sin_nombre" x1="594.64" y1="127.47" x2="594.64" y2="482.03" gradientTransform="matrix(1, 0, 0, -1, -87.95, 724.38)" gradientUnits="userSpaceOnUse"><stop offset="0" stop-color="gray" stop-opacity="0.25"/><stop offset="0.54" stop-color="gray" stop-opacity="0.12"/><stop offset="1" stop-color="gray" stop-opacity="0.1"/></linearGradient><linearGradient id="Degradado_sin_nombre_2" x1="725.79" y1="165.54" x2="725.79" y2="428.91" gradientTransform="matrix(0.97, 0.26, 0.26, -0.97, -160.88, 478.14)" xlink:href="#Degradado_sin_nombre"/><linearGradient id="Degradado_sin_nombre_3" x1="320.63" y1="10.47" x2="320.63" y2="569.55" xlink:href="#Degradado_sin_nombre"/></defs><title>subscribe-dec</title><path class="cls-1" d="M174.09,115.17c-5.48,6.65-7.59,16-10,24.79C145.14,210.8,98.32,267.78,45,308.48,22.42,325.72-5.07,348.84-.13,379.75c2.66,16.6,14.33,28.82,23,42.34C41.06,450.4,47,488.88,38.29,522.77,28.43,561.33.87,597.31,9.4,636.3c5.26,24,23.12,41.08,40.29,55.76q40.17,34.34,82.92,64.32c19.1,13.4,39.42,26.44,61.68,28.14,19.6,1.5,38.8-5.95,57.41-13.3,16.26-6.43,32.93-13.12,46.06-26,8.57-8.41,15.4-19.26,24.92-26.14,22.36-16.16,51.08-5.92,76.72,1,60.5,16.24,125.25,10.31,182.82-16.74,88.31-41.5,155.62-128.65,242-175.41,37.14-20.11,77.54-32.59,111.93-58.49a209.09,209.09,0,0,0,49.2-53.24c26-40.11,40.06-91.25,36-141.31s-26.81-98.3-62.54-126.56c-38.25-30.25-86.56-35.9-130.08-54.06-44.92-18.78-84.9-51-129.39-71.15A264.71,264.71,0,0,0,471,28.23c-48.45,24.5-97.54,81.66-151.5,86C281.09,117.23,204.11,78.75,174.09,115.17Z"/><path class="cls-2" d="M868.13,347.08s-14.56-49.45,2.73-85.84a78.13,78.13,0,0,0,6.32-49,131.9,131.9,0,0,0-6.94-23"/><path class="cls-3" d="M881.05,166.25c0,6.06-11,23.63-11,23.63s-11-17.57-11-23.63a11,11,0,1,1,21.94,0Z"/><path class="cls-3" d="M899.14,199.81c-3.29,5.09-22.09,13.88-22.09,13.88s.34-20.71,3.63-25.8a11,11,0,0,1,18.42,11.93Z"/><path class="cls-3" d="M898.35,257.18c-5.41,2.73-26,.84-26,.84s10.75-17.71,16.16-20.44a11,11,0,0,1,9.88,19.59Z"/><path class="cls-3" d="M888,300.49c-4.87,3.6-25.53,5.23-25.53,5.23s7.6-19.27,12.48-22.88a11,11,0,0,1,13,17.64Z"/><path class="cls-3" d="M854.05,214.86c4.35,4.22,24.6,8.6,24.6,8.6s-5-20.11-9.31-24.34a11,11,0,1,0-16.42,14.65A11.64,11.64,0,0,0,854.05,214.86Z"/><path class="cls-3" d="M842.56,265.62c5.41,2.73,26,.84,26,.84S857.81,248.75,852.4,246a11,11,0,0,0-9.88,19.59Z"/><path class="cls-3" d="M837.45,316.23c4.87,3.6,25.53,5.23,25.53,5.23s-7.6-19.27-12.48-22.88a11,11,0,1,0-14.58,16.48,11.26,11.26,0,0,0,1.58,1.16Z"/><path class="cls-4" d="M881.05,165.25c0,6.06-11,23.63-11,23.63s-11-17.57-11-23.63a11,11,0,1,1,21.94,0Z"/><path class="cls-4" d="M899.14,198.81c-3.29,5.09-22.09,13.88-22.09,13.88s.34-20.71,3.63-25.8a11,11,0,0,1,18.42,11.93Z"/><path class="cls-4" d="M898.35,256.18c-5.41,2.73-26,.84-26,.84s10.75-17.71,16.16-20.44a11,11,0,0,1,9.88,19.59Z"/><path class="cls-4" d="M888,299.49c-4.87,3.6-25.53,5.23-25.53,5.23s7.6-19.27,12.48-22.88a11,11,0,0,1,13,17.64Z"/><path class="cls-4" d="M854.05,213.86c4.35,4.22,24.6,8.6,24.6,8.6s-5-20.11-9.31-24.34a11,11,0,1,0-16.42,14.65A11.64,11.64,0,0,0,854.05,213.86Z"/><path class="cls-4" d="M842.56,264.62c5.41,2.73,26,.84,26,.84S857.81,247.75,852.4,245a11,11,0,0,0-9.88,19.59Z"/><path class="cls-4" d="M837.1,315.55c4.87,3.6,25.53,5.23,25.53,5.23s-7.6-19.27-12.48-22.88a11,11,0,0,0-14.57,16.48,11.16,11.16,0,0,0,1.57,1.16Z"/><path class="cls-2" d="M929.13,426.08s-14.56-49.45,2.73-85.84a78.13,78.13,0,0,0,6.32-49,131.9,131.9,0,0,0-6.94-23"/><path class="cls-3" d="M942.05,245.25c0,6.06-11,23.63-11,23.63s-11-17.57-11-23.63a11,11,0,1,1,21.94,0Z"/><path class="cls-3" d="M960.14,278.81c-3.29,5.09-22,13.87-22,13.87s.34-20.71,3.63-25.8a11,11,0,1,1,18.42,11.93Z"/><path class="cls-3" d="M958.64,335.92c-5.41,2.73-26,.84-26,.84s10.75-17.71,16.16-20.44a11,11,0,1,1,11.32,18.86,10.25,10.25,0,0,1-1.44.73Z"/><path class="cls-3" d="M948.27,379.23c-4.87,3.6-25.53,5.23-25.53,5.23s7.6-19.27,12.48-22.88a11,11,0,0,1,13,17.64Z"/><path class="cls-3" d="M915.05,293.86c4.35,4.22,24.6,8.6,24.6,8.6s-5-20.11-9.31-24.34a11,11,0,0,0-15.29,15.74Z"/><path class="cls-3" d="M902.85,344.36c5.41,2.73,26,.84,26,.84s-10.75-17.71-16.16-20.44a11,11,0,0,0-9.88,19.59Z"/><path class="cls-3" d="M898.45,395.23c4.87,3.6,25.53,5.23,25.53,5.23s-7.6-19.27-12.48-22.88a11,11,0,1,0-14.58,16.48,11.26,11.26,0,0,0,1.58,1.16Z"/><path class="cls-4" d="M942.05,244.25c0,6.06-11,23.63-11,23.63s-11-17.57-11-23.63a11,11,0,1,1,21.94,0Z"/><path class="cls-4" d="M960.14,277.81c-3.29,5.09-22,13.87-22,13.87s.34-20.71,3.63-25.8a11,11,0,1,1,18.42,11.93Z"/><path class="cls-4" d="M958.29,335.24c-5.41,2.73-26,.84-26,.84s10.75-17.71,16.16-20.44a11,11,0,1,1,11.33,18.86,11.57,11.57,0,0,1-1.45.73Z"/><path class="cls-4" d="M947.92,378.55c-4.87,3.6-25.53,5.23-25.53,5.23s7.6-19.27,12.48-22.88a11,11,0,0,1,13,17.64Z"/><path class="cls-4" d="M915.05,292.86c4.35,4.22,24.6,8.6,24.6,8.6s-5-20.11-9.31-24.34a11,11,0,0,0-15.29,15.74Z"/><path class="cls-4" d="M902.5,343.68c5.41,2.73,26,.84,26,.84s-10.75-17.71-16.16-20.44a11,11,0,0,0-9.88,19.59Z"/><path class="cls-4" d="M898.1,394.55c4.87,3.6,25.53,5.23,25.53,5.23s-7.6-19.27-12.48-22.88a11,11,0,0,0-14.57,16.48,11.16,11.16,0,0,0,1.57,1.16Z"/><ellipse class="cls-1" cx="531.51" cy="511.99" rx="494.14" ry="79.54" transform="matrix(1, -0.1, 0.1, 1, -47.18, 54.01)"/><path class="cls-5" d="M981.23,471.25c18.49-37.9,14.67-99.59,12.7-120.53-.43-4.58-.77-7.21-.77-7.21s-16.3-2.57-10.29-22.3c2.94-9.66-7.5-15-18.9-17.93a133.45,133.45,0,0,0-24.84-3.51L781.24,290h0C759.59,255.66,717,261.18,717,261.18s-38-3.95-64.94-4.36a72.74,72.74,0,0,0-13.36-9.33,43.59,43.59,0,0,0-9.06-4.13A25.66,25.66,0,0,0,607,247.61a12.11,12.11,0,0,0-3.69,4.29,11.23,11.23,0,0,0-.75,2.41,41.71,41.71,0,0,0-1,4.29,7.2,7.2,0,0,1-1,1.95c-1.08,1.53-2.94,2.68-3.18,4.53a1.71,1.71,0,0,0,0,.32,3.28,3.28,0,0,0-.39,1.14,4.17,4.17,0,0,0,.51,2.37,3.79,3.79,0,0,0,.2.34,28.34,28.34,0,0,0-3.23,6.2,10.67,10.67,0,0,0-1.07.67l-.3.22V277l-.17.13-.37,9.85.21.16a29.17,29.17,0,0,0,13.56,22.76c.13.63.25,1.27.37,1.94a52.51,52.51,0,0,1,.74,9.78h-.17c-4.7-2-12.74.94-19.65,4.37H498.05c17.46-22.46,38.82-39.88,38.82-39.88V266.32c-15.26-.76-149.32,63.64-178.71,77.86l-1.3.63-151,4.68c-27.36-.17-51.28,3.85-72,10.4a204.91,204.91,0,0,0-90.16,57.6C25.81,437.07,18,453.25,18,453.25l.17,1.36L18,455l.24.21,4.07,32.12,2.8,22.1C5.64,522,30.85,527,30.85,527c24,20.58,62.61,19.73,62.61,19.73,9.43,12.87,36.88,11.15,36.88,11.15H274.43a348.16,348.16,0,0,1,9-39.2c6.15,44.29,41.1,78.22,83.28,78.22a77.1,77.1,0,0,0,9.36-.57,77.1,77.1,0,0,0,9.36.57c42.67,0,77.93-34.73,83.48-79.76h7a157.21,157.21,0,0,1-6.83,29.59C598.64,509,839.65,491,839.65,491q1.5-14.25,3.29-27.49c9.93,24.65,32.44,41.86,58.64,41.86a58.41,58.41,0,0,0,7.12-.44,58.41,58.41,0,0,0,7.12.44c31.11,0,57-24.27,62.84-56.45A148.78,148.78,0,0,1,980,466c-1.11,5.46-2.08,8.95-2.21,9.44q1.17-2.14,2.22-4.38v1.78c-.24,1-.41,1.56-.46,1.75l.44-.82v1.31A39,39,0,0,1,981.23,471.25Z"/><rect class="cls-6" x="669.22" y="335.07" width="296.9" height="119.77"/><polygon class="cls-7" points="593.73 278.98 635.9 373.45 719.41 368.39 722.78 329.59 725.31 284.04 607.23 275.6 593.73 278.98"/><path class="cls-8" d="M593.73,279s16-15.18,35.43-18.56,84.35,3.37,84.35,3.37l9.28,16-1.74,7.62Z"/><rect class="cls-7" x="453.29" y="327.48" width="299.43" height="87.72"/><path class="cls-9" d="M679.05,387.16c7.91-26.45-7.86-43.83-7.86-43.83l-26.14-18.24a1.42,1.42,0,0,1-.08.18,34,34,0,0,1-7.11-13.78c-.08-.32-.15-.65-.23-1a28.3,28.3,0,0,0,6.2-6.35c4.26-2.61,6.16-6.81,6.88-11A55,55,0,0,0,657.2,280a23,23,0,0,0,.66-2.29,12,12,0,0,0,.66-4.49,12.27,12.27,0,0,0-1.66-4.8c-4.4-8-12.32-13.57-20.35-18.11a43.14,43.14,0,0,0-8.91-4.06,25.26,25.26,0,0,0-22.3,4.18,11.91,11.91,0,0,0-3.63,4.22,11.63,11.63,0,0,0-.74,2.37,40.81,40.81,0,0,0-.95,4.22,7.23,7.23,0,0,1-.94,1.91c-1.07,1.5-2.89,2.63-3.13,4.46a1.71,1.71,0,0,0,0,.32,3.45,3.45,0,0,0-.38,1.12,4,4,0,0,0,.5,2.33,3.79,3.79,0,0,0,.2.34,27.44,27.44,0,0,0-3.18,6.1,10.44,10.44,0,0,0-1.06.66l-.29.21v.6l-.17.13-.37,9.69.2.16a28.69,28.69,0,0,0,13.33,22.39c.13.62.25,1.25.36,1.91a51.27,51.27,0,0,1,.72,10.57,3.54,3.54,0,0,1,0-.92c-7.23-3.27-23,5.77-29.35,9.77h0a12.34,12.34,0,0,0-2.67,1.73l-.11.08h0c-4.37,3.54-13,13.38-19.85,38.67-9.5,35.29-8.51,43.29-15.43,51.47s-13.79,65.81-13.79,65.81l13.93,3.75,1.78-5.72c16.56,15.1,62.93,22.37,62.93,22.37l1.42-4.41c7.11,2.56,19-1.33,19-1.33,17.38-6.14,23.89-21.72,36.5-42.27S679.05,387.16,679.05,387.16ZM609,493.49l32.1-99.57c2.91,15.46-9.93,39.81-11.07,55.73C629.27,459.89,617.35,480.24,609,493.49Z"/><path class="cls-10" d="M649.11,282.39s5.59,21.29-11,25-5.66-9.57-5.66-9.57l16-15.59Z"/><path class="cls-11" d="M579.75,333.13s-12.34,5-21.41,38.68-8.17,41.28-14.7,49.11-13.22,62.77-13.22,62.77l13.06,3.52,11.37-36.72,31.27-97Z"/><path class="cls-12" d="M579.75,333.13s-12.34,5-21.41,38.68-8.17,41.28-14.7,49.11-13.22,62.77-13.22,62.77l13.06,3.52,11.37-36.72,31.27-97Z"/><path class="cls-13" d="M648.27,329.33s-51.66,26.26-44.1,9.13c3.74-8.46,3.6-17.23,2.51-24a50.94,50.94,0,0,0-3.25-11.62s35.12-27.78,33.06-5.1a43.36,43.36,0,0,0,1,14.58C640.53,324.35,648.27,329.33,648.27,329.33Z"/><path class="cls-14" d="M637.49,312.36a27,27,0,0,1-24,5,27.53,27.53,0,0,1-6.85-2.89,50.94,50.94,0,0,0-3.25-11.62s35.12-27.78,33.06-5.1A43.55,43.55,0,0,0,637.49,312.36Z"/><circle class="cls-13" cx="620.93" cy="289.91" r="27.04" transform="matrix(0.26, -0.97, 0.97, 0.26, 179.55, 814.11)"/><path class="cls-14" d="M607.35,276.72a6.45,6.45,0,0,1-8.87-2.14l-.13-.23a3.9,3.9,0,0,1-.46-2.22c.23-1.74,2-2.82,3-4.26,1.63-2.33,1.32-5.52,2.5-8.11a11.37,11.37,0,0,1,3.42-4,23.53,23.53,0,0,1,21-4.08,39.85,39.85,0,0,1,8.34,3.83c7.52,4.29,14.93,9.54,19,17.17a11.8,11.8,0,0,1,1.54,4.57,12.9,12.9,0,0,1-.9,5.1A53.11,53.11,0,0,1,649.51,295a9.88,9.88,0,0,0-3.24-2.61,3.34,3.34,0,0,0-3.84.71c-.87,1.11-1.4,3.23-2.72,2.73-.86-.32-.85-1.51-.81-2.43.18-4-2-7.77-4.93-10.47s-6.56-4.48-10.14-6.23c-2.57-1.26-6-4.15-8.82-4.66C611.51,271.41,609.86,275.17,607.35,276.72Z"/><path class="cls-10" d="M607.72,275.35a6.45,6.45,0,0,1-8.87-2.14l-.13-.23a3.9,3.9,0,0,1-.46-2.22c.23-1.74,2-2.82,3-4.26,1.63-2.33,1.32-5.52,2.5-8.11a11.37,11.37,0,0,1,3.42-4,23.53,23.53,0,0,1,21-4.08,39.85,39.85,0,0,1,8.34,3.83c7.52,4.29,14.93,9.54,19,17.17a11.8,11.8,0,0,1,1.54,4.57,12.9,12.9,0,0,1-.9,5.1,53.11,53.11,0,0,1-6.23,12.67,9.88,9.88,0,0,0-3.24-2.61,3.34,3.34,0,0,0-3.84.71c-.87,1.11-1.4,3.23-2.72,2.73-.86-.32-.85-1.51-.81-2.43.18-4-2-7.77-4.93-10.47s-6.56-4.48-10.14-6.23c-2.57-1.26-6-4.15-8.82-4.66C611.88,270,610.23,273.8,607.72,275.35Z"/><path class="cls-11" d="M621.88,332.91s21.39-4.19,22.32-7.62l24.46,17.27s14.72,16.49,7.19,41.73c0,0-6.13,52.89-18.05,72.52s-18.77,45.06-35.1,51c0,0-15.7-10.12-20.88-10,0,0,26.59-38.53,27.73-53.7s13.29-38.43,10.63-53.15l-36,111.9s-58-9-63.88-28.25c0,0,5-7.51,4.07-15.12s21.88-64.86,21.88-64.86l10.92-59.7s21.6-15.09,30.2-11.17C607.33,323.7,605.77,331.15,621.88,332.91Z"/><g class="cls-15"><path d="M629.67,286.49h0c-5.28-7.2-15.35-1.29-17-.26l-2.59-.26c-2.26-2.46-9.19-9-15.7-4.19l-.28.21-.39,9.23.28.22a19.35,19.35,0,0,0,6.29,3.22,9.53,9.53,0,0,0,4.44.22,7.68,7.68,0,0,0,5.11-4l1.35.09,1-.19a7.62,7.62,0,0,0,3.6,5.14c4.47,2.53,11,0,11.27-.05l.34-.13,2.4-8.93Zm-3.39,8.12c-1.33.45-6.35,1.93-9.72,0a6.46,6.46,0,0,1-3-4.86l-.12-.73-2.19.45-2.2-.08-.21.42a6.5,6.5,0,0,1-4.39,3.68c-3.77.81-8.13-2.11-9.27-2.94l.33-7.8c5.66-3.81,11.9,2.37,13.7,4.39l.19.21,3.65.36.22-.15c.1-.06,9.17-6.15,14.34-1.25a7.36,7.36,0,0,1,.71.77Z"/><path d="M646.05,291.13l-17-1.41-1.4-.27.63-2.36a7.36,7.36,0,0,0-.71-.77l2.06.2,13.91,1.36Z"/></g><path class="cls-10" d="M629.85,285.85h0c-5.28-7.2-15.35-1.29-17-.26l-2.59-.26c-2.26-2.46-9.19-9-15.7-4.19l-.28.21-.39,9.23.28.22a19.35,19.35,0,0,0,6.29,3.22,9.53,9.53,0,0,0,4.44.22,7.68,7.68,0,0,0,5.11-4l1.35.09,1-.19a7.62,7.62,0,0,0,3.6,5.14c4.47,2.53,11,0,11.27,0l.34-.13,2.4-8.93ZM626.46,294c-1.33.45-6.35,1.93-9.72,0a6.46,6.46,0,0,1-3-4.86l-.12-.73-2.19.45-2.17-.14-.21.42a6.48,6.48,0,0,1-4.37,3.72c-3.77.81-8.13-2.11-9.27-2.94l.33-7.8c5.66-3.81,11.9,2.37,13.7,4.39l.19.21,3.65.36.22-.15c.1-.06,9.17-6.15,14.34-1.25a7.36,7.36,0,0,1,.71.77Z"/><path class="cls-10" d="M646.21,290.49l-16.94-1.41-1.4-.27.63-2.36a7.36,7.36,0,0,0-.71-.77l2.06.2,13.91,1.36Z"/><rect class="cls-6" x="233.14" y="395.8" width="296.9" height="119.77"/><ellipse class="cls-7" cx="369.02" cy="503.34" rx="82.85" ry="90.67"/><ellipse class="cls-12" cx="369.02" cy="503.34" rx="82.85" ry="90.67"/><ellipse class="cls-7" cx="387.43" cy="503.34" rx="82.85" ry="90.67"/><circle class="cls-12" cx="385.59" cy="503.8" r="36.82"/><circle class="cls-16" cx="385.59" cy="503.8" r="11.05"/><circle class="cls-6" cx="385.59" cy="484.47" r="2.76"/><circle class="cls-6" cx="400.69" cy="489.8" r="2.76"/><circle class="cls-6" cx="406.34" cy="504.8" r="2.76"/><circle class="cls-6" cx="398.45" cy="518.76" r="2.76"/><circle class="cls-6" cx="382.7" cy="521.7" r="2.76"/><circle class="cls-6" cx="370.32" cy="511.53" r="2.76"/><circle class="cls-6" cx="370.16" cy="495.5" r="2.76"/><path class="cls-8" d="M982.74,433.27h0C979.91,452.81,972,474.2,972,474.2c.05-1.33.09-2.65.1-3.95v-5c-1-53.86-30.35-87.09-49.28-103a106.33,106.33,0,0,0-15.81-11.16H958.5s20.24,41.33,24.46,61.57C984.18,418.34,983.84,425.67,982.74,433.27Z"/><path class="cls-12" d="M982.74,433.27h0C979.91,452.81,972,474.2,972,474.2c.05-1.33.09-2.65.1-3.95v-5c-1-53.86-30.35-87.09-49.28-103a106.33,106.33,0,0,0-15.81-11.16H958.5s20.24,41.33,24.46,61.57C984.18,418.34,983.84,425.67,982.74,433.27Z"/><ellipse class="cls-7" cx="895.02" cy="435.02" rx="63.01" ry="68.96"/><ellipse class="cls-12" cx="895.02" cy="435.02" rx="63.01" ry="68.96"/><ellipse class="cls-7" cx="909.02" cy="435.02" rx="63.01" ry="68.96"/><circle class="cls-12" cx="907.62" cy="435.37" r="28"/><circle class="cls-16" cx="907.62" cy="435.37" r="8.4"/><circle class="cls-6" cx="907.62" cy="420.67" r="2.1"/><circle class="cls-6" cx="919.11" cy="424.72" r="2.1" transform="translate(-57.97 690.16) rotate(-40)"/><circle class="cls-6" cx="923.4" cy="436.14" r="2.1" transform="translate(333.54 1269.77) rotate(-80)"/><circle class="cls-6" cx="917.41" cy="446.76" r="2.1" transform="translate(-100.47 518.56) rotate(-30)"/><circle class="cls-6" cx="905.43" cy="448.99" r="2.1"/><circle class="cls-6" cx="896.01" cy="441.24" r="2.1" transform="translate(-96.88 333.06) rotate(-20)"/><circle class="cls-6" cx="895.9" cy="429.06" r="2.1" transform="translate(76.38 990.4) rotate(-60)"/><path class="cls-8" d="M33.67,512.62l-7.62-59.89H116.3l46.39,41.33L139.92,547.2S48.05,532,33.67,512.62Z"/><path class="cls-12" d="M162.72,494.06,140,547.2S48.05,532,33.67,512.62L33.34,510l-7-55.38-.07-.55-.17-1.34h90.25Z"/><path class="cls-17" d="M536.38,268.86v19.4s-46.64,38-57.74,73.85a45.12,45.12,0,0,0-2.15,18.09c4.22,39.64-121.44-32.06-121.44-32.06l5.59-2.72C389.53,331.49,521.37,268.1,536.38,268.86Z"/><path class="cls-8" d="M642.66,362.49s43.68-21.46,50.69-37.34c.94-2.13,1.83-4.28,2.87-6.37,4.33-8.71,13.43-29.14,8.85-38.95-5.9-12.65,14.34,1.69,14.34,1.69L707.6,341.39l-28.68,16-37.11,5.1"/><path class="cls-12" d="M642.66,362.49s43.68-21.46,50.69-37.34c.94-2.13,1.83-4.28,2.87-6.37,4.33-8.71,13.43-29.14,8.85-38.95-5.9-12.65,14.34,1.69,14.34,1.69L707.6,341.39l-28.68,16-37.11,5.1"/><path class="cls-12" d="M162.72,494.06,140,547.2S48.05,532,33.67,512.62L33.34,510c.37-.25.76-.51,1.17-.76,0,0,27.83,21.93,91.1,27,0,0,38-30.37-23.62-64.1,0,0-53.6,1.68-75.68-17.51l-.24-.2.17-.35c.15-.29.38-.73.71-1.34h89.37Z"/><path class="cls-12" d="M476.49,380.19c4.22,39.65-121.44-32.05-121.44-32.05l5.59-2.72c3.7,3.94,18.47,17.23,48,15.79,19-.93,47.85-.08,70.05.89A45.31,45.31,0,0,0,476.49,380.19Z"/><path class="cls-12" d="M530.05,395.8V515.57H474.89c3.64-27.86,1.54-68.47-33.84-91.75a85.58,85.58,0,0,0-89.3-2.66c-23.19,13.24-49.12,40.16-65.6,94.41h-53V395.8Z"/><path class="cls-12" d="M982.74,433.27h0c-2.08,13.22-5.42,26.06-10.59,37-.67,1.47-1.39,2.91-2.18,4.31.13-.49,1.08-3.91,2.18-9.29,5.36-26.2,14.53-98.7-46.91-102.84-.8-.05-1.59-.1-2.38-.13a106,106,0,0,0-15.81-11.23H958.5s20.24,41.33,24.46,61.57C984.18,418.34,983.84,425.67,982.74,433.27Z"/><path class="cls-18" d="M971.64,473.76c.8-2.89,29.3-107.13-44.73-112.12-75.07-5.06-84.35,51.45-92.78,128.21,0,0-237,17.71-364.38,54.83,0,0,30.58-83.8-27-121.7a85.58,85.58,0,0,0-89.3-2.66c-28.4,16.22-60.93,53-75.16,135.32H136.57s-27,1.69-36.27-11c0,0-38,.84-61.57-19.4,0,0-25.3-5.06-5.06-17.71,0,0,28.68,21.93,91.94,27,0,0,38-30.37-23.62-64.1,0,0-54,1.69-75.91-17.71,0,0,7.69-15.91,25.24-35.16A201.53,201.53,0,0,1,140,360.89a229.54,229.54,0,0,1,70.85-10.22L359.67,346s14.38,18.56,48.92,16.87,102.06,2.53,102.06,2.53h.67l138.92-6.29a88.25,88.25,0,0,0,11.81-2.5c20.14-5.47,58.34-22.06,51.45-68.39L932,301.75a130.84,130.84,0,0,1,24.43,3.45c11.22,2.88,21.48,8.14,18.59,17.64-5.9,19.4,10.12,21.93,10.12,21.93s.34,2.59.76,7.09C987.86,373.08,991.79,436.88,971.64,473.76Z"/><path class="cls-12" d="M303.58,381s-91.1.84-151,54h33.74s94.47-24.46,117.24-43.86Z"/><path class="cls-19" d="M302.73,380.19s-91.1.84-151,54h33.74s94.47-24.46,117.24-43.86Z"/><path class="cls-12" d="M140.79,361.74v22.67L64.05,419.84l-11.88-1.43A201.5,201.5,0,0,1,140.79,361.74Z"/><path class="cls-19" d="M139.94,360.9v22.67L63.19,419l-11.88-1.43A201.57,201.57,0,0,1,139.94,360.9Z"/><path class="cls-20" d="M248.75,463.7s-41.33,25.3-45.55,81h23.62s9.28-60.73,36.27-81Z"/><path class="cls-12" d="M248.75,463.7s-41.33,25.3-45.55,81h23.62s9.28-60.73,36.27-81Z"/><path class="cls-20" d="M737.13,465.39l-214.25,25.3s-14.17-90.2-11.55-125.29l138.92-6.29a87.69,87.69,0,0,0,11.8-2.47V365l104.59-25.3S784.36,365.85,737.13,465.39Z"/><path class="cls-12" d="M737.13,465.39l-214.25,25.3s-14.17-90.2-11.55-125.29l138.92-6.29a87.69,87.69,0,0,0,11.8-2.47V365l104.59-25.3S784.36,365.85,737.13,465.39Z"/><path class="cls-8" d="M713.51,263.79s45.55-5.9,65.79,32.9l-65.14-2.51Z"/><path class="cls-20" d="M776.14,310.29c-1.79,5.61-.44,11.78,9.93,16,8.63,3.56,18.75-.56,21.7-9.41,1.72-5.16.54-11-8.76-15.75S779.27,300.49,776.14,310.29Z"/><path class="cls-12" d="M776.14,310.29c-1.79,5.61-.44,11.78,9.93,16,8.63,3.56,18.75-.56,21.7-9.41,1.72-5.16.54-11-8.76-15.75S779.27,300.49,776.14,310.29Z"/><path class="cls-21" d="M27.68,465.37s54.06,28,92.86,17.4"/><path class="cls-21" d="M29.59,480.49s34.93,26.94,105.53,20.68"/><path class="cls-21" d="M31.2,493.18s34.65,30.07,105.85,20.54"/><path class="cls-12" d="M776.69,292.16s-28.18,24.33-53.9,35.33C722.79,327.49,761.85,334.44,776.69,292.16Z"/><path class="cls-14" d="M478.15,363.77s133.72,12.63,184.32.82c0,0,2.7,1.79-13.41-5.43Z"/><path class="cls-12" d="M985.87,351.86c-8.33-5.47-21.54-16.82-19.74-29.45.9-6.33-3.58-12.25-9.73-17.22,11.22,2.88,21.48,8.14,18.59,17.64-5.9,19.4,10.12,21.93,10.12,21.93S985.44,347.36,985.87,351.86Z"/><path class="cls-22" d="M313.78,439.9a100,100,0,0,0-.25-10,17.06,17.06,0,0,0-.16-1.78,35.93,35.93,0,0,1,3,2.5l-1.65-86.84-9.1-45.49c0-32.26-17.37-41.35-17.37-41.35s-9.1-4.14-11.58-9.92-24.46-18-24.47-18q-.25-3.17-.2-6.33c0-.55,0-1.12.05-1.69a27.3,27.3,0,0,0,9.47-34.68c1.22,0,2.21-.51,2.67-2.32,1.46-5.73.05-14.36-3.27-18.94a18.23,18.23,0,0,0-2.39-2.65,43,43,0,0,0-3.25-2.93c-2.84-2.36-6-4.84-9.52-4.64a14.14,14.14,0,0,0-5.63,2q-13.19,6.94-26.31,14c-3.23,1.75-6.56,3.59-8.82,6.73s-3.17,7.16-3.8,11.11a27.39,27.39,0,0,0-.37,8.13,10.47,10.47,0,0,0,3.19,6.48,6.82,6.82,0,0,0,1.23,1.17c1.78,1.3,4.07,1.62,5.93,2.67a27.39,27.39,0,0,0,6.87,10.77c0,.51-.07,1-.11,1.56-.11,1.43-.28,3-.5,4.59h0s-6.11-.16-15.21,12.24-28.95,14.06-28.95,14.06-7.44-3.31-15.71,33.91-10.75,62-6.62,66.16a22.54,22.54,0,0,0,5.86,3.66,71.82,71.82,0,0,0,22.33,7,2,2,0,0,0,.49.79l.59,7.21h0c.5,15.22,1.08,45.75-2,52.52-4.14,9.1.83,14.89.83,14.89l1-.07a6.85,6.85,0,0,0,.62.9l4-.27c-.29,17-1.07,40.58-3.13,45.76-3.31,8.27,0,53.76,0,53.76l-5.79,81.88s-3.17,42.74-.2,47.69C173.93,675,171,692,171.62,696.19c.83,5.79,19.85,14.06,19.85,14.06s22.33,5,33.08,3.31c5.62-.87,7.85-4.67,7.87-8,7.29,1.17,16.78,2.29,22.73,1.37,10.75-1.65,9.1-14.06,3.31-13.23s-12.41-10.81-17.33-16.6c-2.5-2.92-4.58-8.14-6-12.61a4.61,4.61,0,0,0,2.72-1.45c2.48-4.14,6.62-42.18,6.62-42.18l10.75-66.16S261,522.44,266,515c3.75-5.62,8.44-47.56,10.51-67.76h.24l.22-.71,3.11-10c1.66,2.93,5.84,4.38,10.71,5-.52,2.12-.95,3.85-1.2,4.84-1.24,5,16.84,13.23,21.2,9.1,1.83-1.73,2.78-8,3-14.86h.15ZM205.12,665.44c-.28,1.61-.56,3.29-.84,5-.63-2-1.13-3.8-1.47-5.13C203.63,665.34,204.4,665.38,205.12,665.44Z"/><path class="cls-23" d="M232.85,648.2s3.19,14.34,8,19.91S252,684.83,257.57,684s7.17,11.15-3.19,12.74-31.86-3.19-31.86-3.19-18.32-8-19.11-13.54,4.78-34.25,4.78-34.25Z"/><path class="cls-12" d="M232.85,648.2s3.19,14.34,8,19.91S252,684.83,257.57,684s7.17,11.15-3.19,12.74-31.86-3.19-31.86-3.19-18.32-8-19.11-13.54,4.78-34.25,4.78-34.25Z"/><path class="cls-23" d="M203.38,654.57s3.19,14.34,8,19.91,11.15,16.72,16.72,15.93,7.17,11.15-3.19,12.74S193.05,700,193.05,700s-18.32-8-19.11-13.54,4.78-34.25,4.78-34.25Z"/><path class="cls-24" d="M275.86,436.35s-6.37,68.49-11.15,75.66-10.35,38.23-10.35,38.23L244,614s-4,36.64-6.37,40.62-31.93,2.27-31.93,2.27l18.34-210.93Z"/><path class="cls-12" d="M275.86,436.35s-6.37,68.49-11.15,75.66-10.35,38.23-10.35,38.23L244,614s-4,36.64-6.37,40.62-31.93,2.27-31.93,2.27l18.34-210.93Z"/><path class="cls-24" d="M288.6,403.7l-2.08,6.61L275.27,446l-.22.68H275c-1.51.34-33.39,7.67-40.27,9.92a8.41,8.41,0,0,0-1.09.41c-3.19,1.59-7.17,58.93-7.17,58.93s-2.39,54.16-4,58.14-8,86-12,83.62-32.65,0-32.65,0c-3.19-3.19,0-46.19,0-46.19l5.57-78.85s-3.19-43.8,0-51.77,3.19-61.32,3.19-61.32l65.23-10.1,6.3-1Z"/><path class="cls-25" d="M286.52,410.31,275.27,446l-.27.7c-1.51.34-33.39,7.67-40.27,9.92H234l17.81-47.15.51-1.36,5.79.37Z"/><path class="cls-14" d="M212.14,244.42s29.47,31.86,47.79,5.57l17.52,11.95-3.19,18.32,10.35,138.58s-27.08-.8-46.19,5.57a29.64,29.64,0,0,1-31.06-7.17l3.19-121.85L203.38,258Z"/><path class="cls-23" d="M212.14,242s29.47,31.86,47.79,5.57l17.52,12-3.19,18.32,10.36,138.62s-27.08-.8-46.19,5.57a29.64,29.64,0,0,1-31.06-7.17L210.56,293l-7.17-37.43Z"/><path class="cls-26" d="M273.47,406.88s0,20.71,4.78,29.47,32.65,4,32.65,4l-5.57-29.47Z"/><path class="cls-27" d="M307.87,454.67c-4.2,4-21.61-4-20.41-8.76.84-3.37,3.78-15.43,5.45-22.27l1.16-4.81s10.2-3.19,13.8,0c1.31,1.16,2.23,5.73,2.66,11.25C311.27,439.67,310.54,452.14,307.87,454.67Z"/><path class="cls-27" d="M269.48,256.36l-27.87,21.5s-41.41-2.39-31.06-22.3a74.12,74.12,0,0,0,8-28.14,58.26,58.26,0,0,0,0-10.89s38.23-35,33.45,4.78a88.31,88.31,0,0,0-.66,9.2C250.81,260.37,269.48,256.36,269.48,256.36Z"/><path class="cls-14" d="M252,221.32a88.31,88.31,0,0,0-.66,9.2,26.11,26.11,0,0,1-14.47,4.34c-7.13,0-12.38-6.94-17.12-11.55.53-6.61-1.19-6.77-1.19-6.77S256.74,181.49,252,221.32Z"/><circle class="cls-27" cx="236.83" cy="206.98" r="26.28" transform="translate(-5.41 407.6) rotate(-80.78)"/><path class="cls-14" d="M218.12,232.07s-4.38.4-13.14,12.34S177.05,258,177.05,258s-7.17-3.19-15.13,32.65-10.35,59.73-6.37,63.71,19.91,9.56,27.87,9.56c0,0,2.39,50.17-1.59,58.93s.8,14.34.8,14.34l35-2.39s12-15.13,14.34-41.41,10.35-101.15,6.37-109.91-21.5-31.06-20.71-33.45S218.12,232.07,218.12,232.07Z"/><path class="cls-26" d="M218.05,231.83s-5.89-.16-14.65,11.79-27.87,13.54-27.87,13.54-7.17-3.19-15.13,32.65-10.35,59.73-6.35,63.68,19.91,9.56,27.87,9.56c0,0,2.39,50.17-1.59,58.93s.8,14.34.8,14.34l35-2.39s12-15.13,14.34-41.41,10.35-101.15,6.37-109.91-21.5-31.06-20.71-33.45S218.05,231.83,218.05,231.83Z"/><path class="cls-27" d="M197.05,334.41s39.85-45.7,34.25-14.34c-4,22.3-19.11,34.25-26.28,36.64S197.05,334.41,197.05,334.41Z"/><path class="cls-14" d="M310.53,430.08c-3.81-2.91-11-7.44-17.62-6.44l1.16-4.81s10.2-3.19,13.8,0C309.19,420,310.1,424.56,310.53,430.08Z"/><path class="cls-14" d="M251.56,236.85s20.31,13.14,22.7,18.72,11.15,9.56,11.15,9.56,16.72,8.76,16.72,39.82l8.76,43.8-39.84,55.74s-4.78-55.75-7.17-69.29-5.57-39-5.57-39S246.36,281.07,248,277.09,251.56,236.85,251.56,236.85Z"/><path class="cls-26" d="M251.49,236.61S272.67,248.4,275.05,254s11.16,9.52,11.16,9.52,16.72,8.76,16.72,39.82l8.76,43.8,1.59,83.62s-14.34-13.54-24.69-7.17-16.72-20.71-16.72-20.71-4.78-55.75-7.17-69.29-5.57-39-5.57-39-11.95-15.07-10.35-19.07S251.49,236.61,251.49,236.61Z"/><path class="cls-14" d="M259.9,175a26.12,26.12,0,0,0-4.64-4.58c-2.74-2.28-5.77-4.66-9.17-4.46a13.85,13.85,0,0,0-5.42,1.94q-12.71,6.69-25.33,13.52c-3.11,1.68-6.32,3.46-8.49,6.48s-3,6.9-3.66,10.7a26.3,26.3,0,0,0-.36,7.82,9.81,9.81,0,0,0,3.46,6.57c2.27,1.65,5.38,1.66,7.28,3.82,1.1,1.25,1.58,3,2.36,4.52s2.13,3,3.67,2.73,2.47-1.9,2.69-3.55a21.48,21.48,0,0,0-.29-5c-.3-3,.08-6.18,1.82-8.41,1.2-1.52,2.92-2.44,4.08-4,2.78-3.76,1.51-10,4.56-13.53a7.23,7.23,0,0,1,7-2c2.47.52,4.73,1.86,7,3a51.66,51.66,0,0,0,9.59,3.7c2.78.76,6,2.58,6.95-1.12C264.45,187.74,263.05,179.43,259.9,175Z"/><path class="cls-28" d="M259.1,174.22a26.12,26.12,0,0,0-4.64-4.58c-2.74-2.28-5.77-4.66-9.17-4.46a13.85,13.85,0,0,0-5.42,1.94c-8.46,4.46-15.49.24-25.33,13.52-2.1,2.84-6.32,3.46-8.49,6.48s-3.05,6.9-3.66,10.7a26.3,26.3,0,0,0-.36,7.82,9.81,9.81,0,0,0,3.46,6.57c2.27,1.65,5.38,1.66,7.28,3.82,1.1,1.25,1.58,3,2.36,4.52s2.13,3,3.67,2.73,2.47-1.9,2.69-3.55a21.48,21.48,0,0,0-.29-5c-.3-3,.08-6.18,1.82-8.41,1.2-1.52,2.92-2.44,4.08-4,2.78-3.76,1.51-10,4.56-13.53a7.23,7.23,0,0,1,7-2c2.47.52,4.73,1.86,7,3a51.66,51.66,0,0,0,9.59,3.7c2.78.76,6,2.58,6.95-1.12C263.66,186.94,262.3,178.63,259.1,174.22Z"/><path class="cls-26" d="M187.45,292.2s-.8,29.47-4.78,33.45,2.39,8.76,2.39,8.76l15.93-4s-4,26.28,12.74,23.1c0,0-11.15,10.35-22.3,11.95s-10.38-2.38-10.38-2.38l-16.72-19.91Z"/><path class="cls-14" d="M187.32,295.78S176.7,322.86,184.67,334l17.52-4s-15.93,4.78-13.54-4.78S187.32,295.78,187.32,295.78Z"/><path class="cls-14" d="M181.48,362.68s23.1,1.59,29.47-3.19a61,61,0,0,1-28.75,12Z"/><path class="cls-14" d="M281.05,311.71S293,348.35,292.2,353.92s-2.39,66.9-2.39,66.9l-2.39-.8.8-66.9Z"/><path class="cls-29" d="M784.17,415.32s17.5,34.35,3.24,53.14,1.3,70,1.3,70"/><path class="cls-3" d="M788.64,404.37c0,6.62-4.86,12-4.86,12s-4.86-5.37-4.86-12,4.86-12,4.86-12S788.64,397.75,788.64,404.37Z"/><path class="cls-29" d="M793.24,415.32s-17.5,34.35-3.24,53.14-1.3,70-1.3,70"/><path class="cls-3" d="M787.34,404.37c0,6.62,4.86,12,4.86,12s4.86-5.37,4.86-12-4.86-12-4.86-12S787.34,397.75,787.34,404.37Z"/><path class="cls-4" d="M788.05,404.63c0,6.62,4.86,12,4.86,12s4.86-5.37,4.86-12-4.86-12-4.86-12S788.05,398,788.05,404.63Z"/><path class="cls-29" d="M800.37,415.32s17.5,34.35,3.24,53.14,1.3,70,1.3,70"/><path class="cls-3" d="M804.84,404.37c0,6.62-4.86,12-4.86,12s-4.86-5.37-4.86-12,4.86-12,4.86-12S804.84,397.75,804.84,404.37Z"/><path class="cls-3" d="M802.12,431.89c-4.59,4.77-11.82,5.27-11.82,5.27s.22-7.24,4.81-12,11.82-5.27,11.82-5.27S806.71,427.12,802.12,431.89Z"/><path class="cls-3" d="M802.57,455.59c-4.59,4.77-11.82,5.27-11.82,5.27s.22-7.24,4.81-12,11.78-5.28,11.78-5.28S807.16,450.81,802.57,455.59Z"/><path class="cls-3" d="M777.68,468.62c4.34,5,4.19,12.24,4.19,12.24s-7.19-.87-11.53-5.87-4.19-12.24-4.19-12.24S773.34,463.62,777.68,468.62Z"/><path class="cls-3" d="M781.71,418.09c5.52,3.66,7.31,10.68,7.31,10.68s-7.17,1.08-12.68-2.54S769,415.55,769,415.55,776.19,414.43,781.71,418.09Z"/><path class="cls-4" d="M782.42,418.35c5.52,3.66,7.31,10.68,7.31,10.68s-7.17,1.08-12.68-2.54-7.31-10.68-7.31-10.68S776.9,414.69,782.42,418.35Z"/><path class="cls-29" d="M809.44,415.32s-17.5,34.35-3.24,53.14-1.3,70-1.3,70"/><path class="cls-3" d="M803.55,404.37c0,6.62,4.86,12,4.86,12s4.86-5.37,4.86-12-4.86-12-4.86-12S803.55,397.75,803.55,404.37Z"/><path class="cls-4" d="M804.26,404.63c0,6.62,4.86,12,4.86,12s4.86-5.37,4.86-12-4.86-12-4.86-12S804.26,398,804.26,404.63Z"/><path class="cls-3" d="M805,432.4c-4.65,4.72-5,12-5,12s7.23-.41,11.88-5.13,5-12,5-12S809.59,427.68,805,432.4Z"/><path class="cls-4" d="M805.66,432.66c-4.65,4.72-5,12-5,12s7.23-.41,11.88-5.13,5-12,5-12S810.3,427.94,805.66,432.66Z"/><path class="cls-3" d="M814.06,465.23c-4.65,4.72-5,12-5,12s7.23-.41,11.88-5.13,5-12,5-12S818.71,460.49,814.06,465.23Z"/><path class="cls-29" d="M801.36,458.26s10.53-16.6,25.32-17"/><path class="cls-29" d="M793.16,448.23s-10.53-16.6-25.32-17"/><path class="cls-29" d="M791.79,471.93s10.53-16.6,25.32-17"/><circle class="cls-3" cx="825.48" cy="440.91" r="2.73"/><circle class="cls-3" cx="767.38" cy="431.11" r="2.73"/><path class="cls-29" d="M799.54,477.4s-10.53-16.6-25.32-17"/><circle class="cls-3" cx="773.76" cy="460.28" r="2.73"/><circle class="cls-3" cx="816.6" cy="454.81" r="2.73"/><path class="cls-30" d="M857.76,518.49s-25.38-5.08-32.15-11.85S788.38,488.06,785,496.49s-45.69,37.26-17,42.33,67.69,6.77,76.15,3.38S857.76,518.49,857.76,518.49Z"/><path class="cls-31" d="M768.05,535.68c28.77,5.08,67.69,6.77,76.15,3.38,6.44-2.58,10.92-15,12.69-20.72l.85.18s-5.08,20.31-13.54,23.69-47.38,1.69-76.15-3.38c-8.3-1.47-10.68-4.91-9.78-9.26C759,532.4,761.89,534.59,768.05,535.68Z"/><path class="cls-3" d="M112.61,602.89s8.38,11-3.87,27.5S86.39,660.9,90.48,671.23c0,0,18.48-30.73,33.52-31.16S129.15,621.37,112.61,602.89Z"/><path class="cls-14" d="M113.32,603.15a13.48,13.48,0,0,1,1.71,3.44c14.68,17.24,22.49,33.33,8.39,33.74-13.14.38-28.9,23.87-32.68,29.81a10.68,10.68,0,0,0,.45,1.35s18.48-30.73,33.52-31.16S129.86,621.63,113.32,603.15Z"/><path class="cls-32" d="M128.9,617.11c0,3.86-.43,7-1,7s-1-3.13-1-7,.54-2,1.07-2S128.9,613.26,128.9,617.11Z"/><path class="cls-32" d="M134.24,621.72c-3.39,1.85-6.34,3-6.59,2.49s2.28-2.35,5.67-4.19,2.05-.5,2.31,0S137.63,619.87,134.24,621.72Z"/><path class="cls-3" d="M68.34,602.89s-8.38,11,3.87,27.5,22.35,30.51,18.26,40.83c0,0-18.48-30.73-33.52-31.16S51.8,621.37,68.34,602.89Z"/><path class="cls-14" d="M69.05,603.15a13.48,13.48,0,0,0-1.71,3.44C52.66,623.83,44.85,639.92,59,640.33c13.14.38,28.9,23.87,32.68,29.81a10.68,10.68,0,0,1-.45,1.35S72.7,640.76,57.66,640.33,52.51,621.63,69.05,603.15Z"/><path class="cls-32" d="M53.47,617.11c0,3.86.43,7,1,7s1-3.13,1-7-.54-2-1.07-2S53.47,613.26,53.47,617.11Z"/><path class="cls-32" d="M48.13,621.72c3.39,1.85,6.34,3,6.59,2.49s-2.28-2.35-5.67-4.19-2-.5-2.31,0S44.74,619.87,48.13,621.72Z"/><path class="cls-30" d="M56.14,670s23.43-.72,30.49-5.75,36-11,37.79-3,35.21,40.11,8.76,40.32-61.46-4.12-68.51-8.41S56.14,670,56.14,670Z"/><path class="cls-31" d="M133.66,698.84c-26.45.21-61.46-4.12-68.51-8.41-5.37-3.27-7.51-15-8.22-20.41h-.78s1.48,18.9,8.53,23.19,42.06,8.63,68.51,8.41c7.64-.06,10.27-2.78,10.13-6.8C142.25,697.28,139.34,698.79,133.66,698.84Z"/></svg>